# OBJ written from C:\Users\danee\Downloads\Barandales.obj
# Units	meters

o Barandales
v -5.32306 -1.02422 5.8502
v -5.47957 -1.02422 1.39194
v 0.643031 -1.02422 1.39194
v 0.710152 -1.02422 23.5024
v -5.66381 -1.02422 23.5024
v -6.76096 -1.02422 26.5467
v -0.834375 -1.02422 29.0576
v -10.4651 -1.024 32.4831
v -5.98928 -1.02421 36.8974
v -17.1868 -0.836801 38.7906
v -14.049 -1.02581 44.242
v -23.993 -1.02418 40.2548
v -23.9894 -1.02422 46.5451
v -32.0479 -1.02422 38.9823
v -33.702 -1.02422 45.0513
v -38.0555 -1.02422 35.7206
v -41.5988 -1.02422 40.9176
v -41.9005 -1.02422 31.1735
v -47.0383 -1.02422 34.7997
v -45.0535 -1.02422 23.8572
v -50.9157 -1.02422 26.1305
v -46.1633 -1.02422 19.7934
v -52.2527 -1.02422 21.3656
v -46.0646 -1.02422 -8.19995
v -52.3529 -1.02422 -8.23148
v -46.0284 -1.02422 -9.03038
v -51.2988 -1.02422 -11.9456
v -46.2675 -1.02422 -9.04081
v -51.5017 -1.02422 -12.0726
v -45.122 -1.02422 -10.689
v -49.6141 -1.02422 -15.0888
v -43.7404 -1.02422 -12.2059
v -46.9346 -1.02422 -17.6258
v -42.3319 -1.02422 -12.9558
v -43.9802 -1.02422 -19.1655
v -41.2414 -1.02422 -13.0424
v -41.2712 -1.02422 -19.5966
v -36.8358 -1.02422 -13.0424
v -36.8366 -1.02422 -19.65
v -34.0016 -1.02422 -13.0277
v -34.6765 -1.02422 -19.6502
v -28.4194 -1.02422 -13.4662
v -33.5847 -1.02422 -19.6295
v -26.4866 -1.02422 -14.8822
v -32.9169 -1.02422 -20.1993
v -26.8886 -1.02422 -17.6824
v -32.4878 -1.02422 -20.8306
v -26.0224 -1.02422 -20.2146
v -32.2941 -1.02422 -21.7803
v -26.0267 -1.02422 -23.2623
v -32.3151 -1.02422 -23.2605
v -26.0267 -1.02422 -29.0835
v -32.3151 -1.02422 -29.0909
v -26.0372 -1.02422 -30.1722
v -32.125 -1.02422 -31.7619
v -25.5955 -1.02422 -31.5731
v -31.0445 -1.02422 -34.7376
v -24.7348 -1.02422 -32.3528
v -29.1486 -1.02422 -36.8321
v -23.8637 -1.02422 -32.9383
v -26.336 -1.02422 -38.727
v -22.5357 -1.02422 -33.3019
v -23.411 -1.02422 -39.5331
v -21.3625 -1.02422 -33.2967
v -21.2114 -1.02422 -39.5831
v -9.59832 -1.02422 -33.2335
v -9.44716 -1.02422 -39.5207
v -8.0079 -1.02422 -32.9525
v -4.97505 -1.02422 -38.4782
v -6.34417 -1.02422 -31.4924
v -1.93719 -1.02422 -35.9842
v -5.69989 -1.02422 -30.3413
v 0.194353 -1.02422 -32.5513
v -5.57649 -1.02422 -26.7917
v 0.713825 -1.02422 -26.7302
v -0.392419 -1.02422 -0.972439
v -4.44412 -1.02422 -0.972439
v -0.392419 -1.02422 -24.2793
v -4.44412 -1.02422 -24.2794
v -8.31905 -1.02422 29.6546
v -3.18616 -1.02422 33.1733
v -13.5051 -0.938244 36.0567
v -9.68091 -1.03304 40.9854
v -20.3709 -0.938497 40.0616
v -18.9884 -1.03586 45.9964
v -28.0551 -1.02422 39.8795
v -28.8807 -1.02422 46.064
v -35.0431 -1.02422 37.632
v -37.8835 -1.02422 43.1877
v -40.1564 -1.02422 33.7106
v -44.6026 -1.02422 38.0738
v -43.7541 -1.02422 27.6697
v -49.2611 -1.02422 30.6143
v -46.1465 -1.02422 17.9201
v -52.385 -1.02422 17.9734
v -5.41478 -1.02422 -29.1785
v 0.778825 -1.02422 -29.2172
v 0.516681 -1.02422 26.339
v -6.15704 -1.02422 24.8709
v 1.73675 -1.02422 5.8502
v 1.73675 -1.02422 1.39194
v 1.73675 -1.02422 23.5024
v 0.710152 3.87578 23.5024
v 1.73675 3.87578 23.5024
v 1.73675 3.87578 5.8502
v 1.73675 3.87578 1.39194
v 0.643031 3.87578 1.39194
v -0.392419 3.87578 -0.972439
v -0.392419 3.87578 -24.2793
v 0.713825 3.87578 -26.7302
v 0.778825 3.87578 -29.2172
v 0.194353 3.87578 -32.5513
v -1.93719 3.87578 -35.9842
v -4.97505 3.87578 -38.4782
v -9.44716 3.87578 -39.5207
v -21.2114 3.87578 -39.5831
v -23.411 3.87578 -39.5331
v -26.336 3.87578 -38.727
v -29.1486 3.87578 -36.8321
v -31.0445 3.87578 -34.7376
v -32.125 3.87578 -31.7619
v -32.3151 3.87578 -29.0909
v -32.3151 3.87578 -23.2605
v -32.2941 3.87578 -21.7803
v -32.4878 3.87578 -20.8306
v -32.9169 3.87578 -20.1993
v -33.5847 3.87578 -19.6295
v -34.6765 3.87578 -19.6502
v -36.8366 3.87578 -19.65
v -41.2712 3.87578 -19.5966
v -43.9802 3.87578 -19.1655
v -46.9346 3.87578 -17.6258
v -49.6141 3.87578 -15.0888
v -51.5017 3.87578 -12.0726
v -51.2988 3.87578 -11.9456
v -52.3529 3.87578 -8.23148
v -52.385 3.87578 17.9734
v -52.2527 3.87578 21.3656
v -50.9157 3.87578 26.1305
v -49.2611 3.87578 30.6143
v -47.0383 3.87578 34.7997
v -44.6026 3.87578 38.0738
v -41.5988 3.87578 40.9176
v -37.8835 3.87578 43.1877
v -33.702 3.87578 45.0513
v -28.8807 3.87578 46.064
v -23.9894 3.87578 46.5451
v -18.9884 3.86414 45.9964
v -14.049 3.87419 44.242
v -9.68091 3.86696 40.9854
v -5.98928 3.87579 36.8974
v -3.18616 3.87578 33.1733
v -0.834375 3.87578 29.0576
v 0.516681 3.87578 26.339
v -5.66381 3.87578 23.5024
v -5.32306 3.87578 5.8502
v -6.15704 3.87578 24.8709
v -6.76096 3.87578 26.5467
v -8.31905 3.87578 29.6546
v -10.4651 3.876 32.4831
v -13.5051 3.96176 36.0567
v -17.1868 4.0632 38.7906
v -20.3709 3.9615 40.0616
v -23.993 3.87582 40.2548
v -28.0551 3.87578 39.8795
v -32.0479 3.87578 38.9823
v -35.0431 3.87578 37.632
v -38.0555 3.87578 35.7206
v -40.1564 3.87578 33.7106
v -41.9005 3.87578 31.1735
v -43.7541 3.87578 27.6697
v -45.0535 3.87578 23.8572
v -46.1633 3.87578 19.7934
v -46.1465 3.87578 17.9201
v -46.0646 3.87578 -8.19995
v -46.0284 3.87578 -9.03038
v -46.2675 3.87578 -9.04081
v -45.122 3.87578 -10.689
v -43.7404 3.87578 -12.2059
v -42.3319 3.87578 -12.9558
v -41.2414 3.87578 -13.0424
v -36.8358 3.87578 -13.0424
v -34.0016 3.87578 -13.0277
v -28.4194 3.87578 -13.4662
v -26.4866 3.87578 -14.8822
v -26.8886 3.87578 -17.6824
v -26.0224 3.87578 -20.2146
v -26.0267 3.87578 -23.2623
v -26.0267 3.87578 -29.0835
v -26.0372 3.87578 -30.1722
v -25.5955 3.87578 -31.5731
v -24.7348 3.87578 -32.3528
v -23.8637 3.87578 -32.9383
v -22.5357 3.87578 -33.3019
v -21.3625 3.87578 -33.2967
v -9.59832 3.87578 -33.2335
v -8.0079 3.87578 -32.9525
v -6.34417 3.87578 -31.4924
v -5.69989 3.87578 -30.3413
v -5.41478 3.87578 -29.1785
v -5.57649 3.87578 -26.7917
v -4.44412 3.87578 -24.2794
v -4.44412 3.87578 -0.972439
v -5.47957 3.87578 1.39194
vn 0 0 -1
vn -1 0 0
vn 0 0 1
vn -0.91601 0 0.401155
vn -0.978777 0 0.204926
vn -0.977613 0 -0.210412
vn -0.97478 0 -0.223166
vn -0.997285 0 0.0736355
vn -0.934267 0 0.356574
vn -0.752119 0 0.659028
vn -0.442345 0 0.896845
vn -0.116893 0 0.993145
vn 0.00871496 0 0.999962
vn 0.14531 0 0.989386
vn 0.417683 0 0.908593
vn 0.654855 0 0.755755
vn 0.856688 0 0.515835
vn 0.978098 0 0.208143
vn 0.999369 0 0.0355293
vn 0.999975 0 -0.00710244
vn 0.995634 0 0.0933432
vn 0.921416 0 0.388578
vn 0.744686 0 0.667415
vn 0.649057 0 0.76074
vn -0.0189164 0 0.999821
vn -0.00941846 0 0.999956
vn 0.00606239 0 0.999982
vn 0.08483 0 0.996395
vn 0.313734 0 0.949511
vn 0.580434 0 0.814307
vn 0.773815 0 0.633411
vn 0.847676 0 0.530515
vn 0.530519 0 -0.847673
vn 0.962003 0 0.273039
vn 0.990371 0 0.138442
vn 0.999822 0 -0.0188803
vn 0.987814 0 -0.155637
vn 0.951249 0 -0.308425
vn 0.912735 0 -0.408551
vn 0.845175 0 -0.534489
vn 0.74772 0 -0.664014
vn 0.607778 0 -0.794107
vn 0.465201 0 -0.885205
vn 0.308055 0 -0.951369
vn 0.151958 0 -0.988387
vn -0.00561865 0 -0.999984
vn -0.223385 0 -0.97473
vn -0.471479 0 -0.881877
vn -0.67316 0 -0.739497
vn -0.771338 0 -0.636426
vn -0.835265 0 -0.549847
vn -0.882248 0 -0.470785
vn -0.965182 0 -0.261578
vn -0.997682 0 -0.0680467
vn -0.983374 0 -0.18159
vn -0.999969 0 0.00789504
vn -0.940769 0 -0.339047
vn -0.918981 0 -0.394301
vn -0.848906 0 -0.528544
vn -0.779472 0 -0.626437
vn -0.68333 0 -0.730109
vn -0.487529 0 -0.873107
vn -0.214854 0 -0.976646
vn 0.019423 0 -0.999811
vn 0.155939 0 -0.987767
vn 0.316738 0 -0.948513
vn 0.474571 0 -0.880217
vn 0.616541 0 -0.787323
vn 0.761692 0 -0.647939
vn 0.855429 0 -0.51792
vn 0.918104 0 -0.396341
vn 0.956063 0 -0.293162
vn 0.991712 0 -0.12848
vn 0.999982 0 0.00603028
vn 0.999727 0 0.023366
vn 0.99905 0 0.0435847
vn 0.0435916 0 -0.999049
vn 0.78191 0 0.623391
vn 0.821148 0 0.570715
vn 0.613631 0 0.789593
vn 0.280447 0 0.95987
vn 0.0396096 0 0.999215
vn -0.00260021 0 0.999997
vn 0.0365934 0 0.99933
vn 0.3479 0 0.937532
vn 0.59097 0 0.806694
vn 0.995631 0 0.0933801
vn 0.989853 0 -0.142097
vn 0.986567 0 0.163357
vn 1 0 -0.000714059
vn 0.999989 0 -0.00478983
vn 0.989079 0 0.147384
vn 0.841852 0 0.539708
vn 0.616209 0 0.787583
vn 0.416429 0 0.909168
vn 0.131045 0 0.991376
vn -0.00487871 0 0.999988
vn -0.0900037 0 0.995941
vn -0.432792 0 0.901494
vn -0.777341 0 0.629079
vn -0.93038 0 0.366598
vn -0.996269 0 0.0862986
vn -0.984216 0 0.176969
vn -0.977669 0 0.210153
vn -0.978777 0 -0.204926
vn -0.982222 0 -0.187722
vt 0 0
vt 1 0
vt 1 1
vt 0 1
vt 0 1.00344
vt 0 -0.00343749
mtllib Barandales.mtl
usemtl Pista
g Default
f 4/1/1 103/2/1 104/3/1 102/4/1
f 102/1/2 104/2/2 105/3/2 100/4/2
f 100/1/2 105/2/2 106/3/2 101/4/2
f 101/1/3 106/2/3 107/3/3 3/4/3
f 3/1/4 107/2/4 108/3/5 76/4/5
f 76/1/5 108/2/5 109/3/6 78/4/6
f 78/1/6 109/2/6 110/3/7 75/4/7
f 75/1/7 110/2/7 111/3/8 97/4/8
f 97/1/8 111/2/8 112/3/9 73/4/9
f 73/1/9 112/2/9 113/3/10 71/4/10
f 71/1/10 113/2/10 114/3/11 69/4/11
f 69/1/11 114/2/11 115/3/12 67/4/12
f 67/1/12 115/2/12 116/3/13 65/4/13
f 65/1/13 116/2/13 117/3/14 63/4/14
f 63/1/14 117/2/14 118/3/15 61/4/15
f 61/1/15 118/2/15 119/3/16 59/4/16
f 59/1/16 119/2/16 120/3/17 57/4/17
f 57/1/17 120/2/17 121/3/18 55/4/18
f 55/1/18 121/2/18 122/3/19 53/4/19
f 53/1/19 122/2/19 123/3/20 51/4/20
f 51/1/20 123/2/20 124/3/21 49/4/21
f 49/1/21 124/2/21 125/3/22 47/4/22
f 47/1/22 125/2/22 126/3/23 45/4/23
f 45/1/23 126/2/23 127/3/24 43/4/24
f 43/1/25 127/2/25 128/3/26 41/4/26
f 41/1/26 128/2/26 129/3/27 39/4/27
f 39/1/27 129/2/27 130/3/28 37/4/28
f 37/1/28 130/2/28 131/3/29 35/4/29
f 35/1/29 131/2/29 132/3/30 33/4/30
f 33/1/30 132/2/30 133/3/31 31/4/31
f 31/1/31 133/2/31 134/3/32 29/4/32
f 29/1/33 134/2/33 135/3/33 27/4/33
f 27/1/34 135/2/34 136/3/35 25/4/35
f 25/1/35 136/2/35 137/3/36 95/4/36
f 95/1/36 137/2/36 138/3/37 23/4/37
f 23/1/37 138/2/37 139/3/38 21/4/38
f 21/1/38 139/2/38 140/3/39 93/4/39
f 93/1/39 140/2/39 141/3/40 19/4/40
f 19/1/40 141/2/40 142/3/41 91/4/41
f 91/1/41 142/2/41 143/3/42 17/4/42
f 17/1/42 143/2/42 144/3/43 89/4/43
f 89/1/43 144/2/43 145/3/44 15/4/44
f 15/1/44 145/2/44 146/3/45 87/4/45
f 87/1/45 146/2/45 147/3/46 13/4/46
f 13/1/46 147/2/46 148/3/47 85/4/47
f 85/1/47 148/2/47 149/3/48 11/4/48
f 11/1/48 149/2/48 150/3/49 83/4/49
f 83/1/49 150/2/49 151/3/50 9/4/50
f 9/1/50 151/2/50 152/3/51 81/4/51
f 81/1/51 152/2/51 153/3/52 7/4/52
f 7/1/52 153/2/52 154/3/53 98/4/53
f 98/1/53 154/2/53 103/3/54 4/4/54
f 5/5/55 155/2/55 156/3/56 1/4/56
f 99/1/57 157/2/57 155/3/55 5/4/55
f 6/1/58 158/2/58 157/3/57 99/4/57
f 80/1/59 159/2/59 158/3/58 6/4/58
f 8/1/60 160/2/60 159/3/59 80/4/59
f 82/1/61 161/2/61 160/3/60 8/4/60
f 10/1/62 162/2/62 161/3/61 82/4/61
f 84/1/63 163/2/63 162/3/62 10/4/62
f 12/1/64 164/2/64 163/3/63 84/4/63
f 86/1/65 165/2/65 164/3/64 12/4/64
f 14/1/66 166/2/66 165/3/65 86/4/65
f 88/1/67 167/2/67 166/3/66 14/4/66
f 16/1/68 168/2/68 167/3/67 88/4/67
f 90/1/69 169/2/69 168/3/68 16/4/68
f 18/1/70 170/2/70 169/3/69 90/4/69
f 92/1/71 171/2/71 170/3/70 18/4/70
f 20/1/72 172/2/72 171/3/71 92/4/71
f 22/1/73 173/2/73 172/3/72 20/4/72
f 94/1/74 174/2/74 173/3/73 22/4/73
f 24/1/75 175/2/75 174/3/74 94/4/74
f 26/1/76 176/2/76 175/3/75 24/4/75
f 28/1/77 177/2/77 176/3/77 26/4/77
f 30/1/78 178/2/78 177/3/79 28/4/79
f 32/1/80 179/2/80 178/3/78 30/4/78
f 34/1/81 180/2/81 179/3/80 32/4/80
f 36/1/82 181/2/82 180/3/81 34/4/81
f 38/1/83 182/2/83 181/3/82 36/4/82
f 40/1/84 183/2/84 182/3/83 38/4/83
f 42/1/85 184/2/85 183/3/84 40/4/84
f 44/1/86 185/2/86 184/3/85 42/4/85
f 46/1/87 186/2/87 185/3/88 44/4/88
f 48/1/89 187/2/89 186/3/87 46/4/87
f 50/1/90 188/2/90 187/3/89 48/4/89
f 52/1/91 189/2/91 188/3/90 50/4/90
f 54/1/92 190/2/92 189/3/91 52/4/91
f 56/1/93 191/2/93 190/3/92 54/4/92
f 58/1/94 192/2/94 191/3/93 56/4/93
f 60/1/95 193/2/95 192/3/94 58/4/94
f 62/1/96 194/2/96 193/3/95 60/4/95
f 64/1/97 195/2/97 194/3/96 62/4/96
f 66/1/98 196/2/98 195/3/97 64/4/97
f 68/1/99 197/2/99 196/3/98 66/4/98
f 70/1/100 198/2/100 197/3/99 68/4/99
f 72/1/101 199/2/101 198/3/100 70/4/100
f 96/1/102 200/2/102 199/3/101 72/4/101
f 74/1/103 201/2/103 200/3/102 96/4/102
f 79/1/104 202/2/104 201/3/103 74/4/103
f 77/1/105 203/2/105 202/3/104 79/4/104
f 2/1/106 204/2/106 203/3/105 77/4/105
f 1/1/56 156/2/56 204/3/106 2/6/106
