# OBJ written from C:\Users\ALD1YO\Documents\Unity_repos\Unity2018.3.7f1\Ultimate_BaconRacing\Assets\Props\Pandas_props\Objs\Barandales_Chidos.obj
# Units	meters

o Nuevos_Barandales
v -36.508 -5.92311 -16.9231
v -36.508 -5.92311 -11.2979
v -36.508 -5.92311 1.56776
v -36.6711 -5.92311 4.0991
v -35.281 -5.92311 16.1002
v -35.3868 -5.92311 17.9331
v -35.5073 -5.92311 19.251
v -36.436 -5.92311 21.735
v -37.4366 -5.92311 24.7612
v -38.353 -5.92311 27.3383
v -40.6827 -5.92311 32.3813
v -43.8878 -5.92311 36.9186
v -49.4639 -5.92311 43.4574
v -53.5581 -5.92311 50.1596
v -58.0171 -5.92311 56.6045
v -63.1788 -5.92311 62.5017
v -74.3557 -5.92311 73.8934
v -84.9377 -5.92311 81.8348
v -96.3975 -5.92311 85.6243
v -113.966 -5.92311 89.0153
v -131.102 -5.92311 89.0153
v -148.67 -5.92311 85.6243
v -160.13 -5.92311 81.8348
v -170.712 -5.92311 73.8934
v -187.404 -5.92311 56.8802
v -195.604 -5.92311 43.4574
v -204.83 -5.92311 32.6384
v -207.631 -5.92311 24.7612
v -208.632 -5.92311 21.735
v -209.56 -5.92311 19.251
v -209.842 -5.92311 17.7322
v -209.787 -5.92311 16.1002
v -208.397 -5.92311 8.43854
v -208.397 -5.92311 -2.97258
v -208.397 -5.92311 -51.9922
v -208.397 -5.92311 -81.255
v -208.397 -5.92311 -115.81
v -208.397 -5.92311 -124.248
v -208.697 -5.92311 -129.143
v -207.854 -5.92311 -135.42
v -207.349 -5.92311 -137.559
v -206.514 -5.92311 -139.013
v -206.139 -5.92311 -139.713
v -205.311 -5.92311 -140.816
v -202.093 -5.92311 -143.588
v -199.359 -5.92311 -144.837
v -196.474 -5.92311 -145.507
v -186.04 -5.92311 -146.347
v -180.22 -5.92311 -148.784
v -173.283 -5.92311 -153.244
v -169.394 -5.92311 -157.043
v -162.141 -5.92311 -166.121
v -157.209 -5.92311 -180.023
v -156.825 -5.92311 -183.72
v -156.486 -5.92311 -192.875
v -156.584 -5.92311 -195.696
v -156.697 -5.92311 -209.058
v -156.332 -5.92311 -213.899
v -154.806 -5.92311 -219.234
v -148.268 -5.92311 -234.132
v -146.481 -5.92311 -236.881
v -142.268 -5.92311 -241.805
v -141.312 -5.92311 -242.722
v -140.439 -5.92311 -243.242
v -137.392 -5.92311 -244.301
v -136.34 -5.92311 -244.387
v -131.438 -5.92311 -244.387
v -112.473 -5.92311 -244.387
v -94.4727 -5.92311 -244.877
v -87.2757 -5.92311 -244.908
v -68.2304 -5.92311 -244.467
v -60.8373 -5.92311 -244.467
v -55.9353 -5.92311 -244.467
v -54.8834 -5.92311 -244.381
v -51.8361 -5.92311 -243.322
v -50.964 -5.92311 -242.803
v -50.0072 -5.92311 -241.885
v -45.7945 -5.92311 -234.39
v -44.0078 -5.92311 -231.64
v -37.4698 -5.92311 -216.742
v -35.9432 -5.92311 -211.408
v -35.5782 -5.92311 -206.567
v -35.6918 -5.92311 -193.204
v -32.3864 -5.92311 -190.553
v -32.3864 -5.92311 -66.8315
v -36.508 -5.92311 -62.2912
v -36.508 -5.92311 -33.9594
v -36.508 -5.92311 -17.881
v -8.15936 -5.92311 -9.2678
v -8.15936 -5.92311 -15.0652
v -8.15936 -5.92311 -16.0524
v -8.15936 -5.92311 -32.623
v -8.15936 -5.92311 -61.8221
v -12.4072 -5.92311 -66.5015
v -12.4072 -5.92311 -191.87
v -8.66055 -5.92311 -194.903
v -9.11764 -5.92311 -213.863
v -10.311 -5.92311 -222.538
v -12.9994 -5.92311 -230.98
v -21.9226 -5.92311 -250.157
v -25.8766 -5.92311 -255.6
v -34.1872 -5.92311 -266.744
v -39.2074 -5.92311 -269.926
v -43.4733 -5.92311 -271.637
v -51.3725 -5.92311 -273.503
v -53.9256 -5.92311 -273.637
v -58.9776 -5.92311 -273.637
v -66.5971 -5.92311 -273.637
v -86.2254 -5.92311 -273.637
v -93.6426 -5.92311 -273.554
v -112.194 -5.92311 -273.554
v -131.74 -5.92311 -273.554
v -136.792 -5.92311 -273.554
v -139.345 -5.92311 -273.42
v -147.244 -5.92311 -271.554
v -151.51 -5.92311 -269.843
v -156.53 -5.92311 -266.661
v -164.841 -5.92311 -258.167
v -168.795 -5.92311 -252.724
v -177.718 -5.92311 -233.547
v -180.406 -5.92311 -225.106
v -181.6 -5.92311 -216.431
v -181.717 -5.92311 -199.31
v -181.993 -5.92311 -196.394
v -183.069 -5.92311 -187.954
v -183.795 -5.92311 -184.143
v -186.943 -5.92311 -179.657
v -190.373 -5.92311 -176.546
v -192.819 -5.92311 -174.267
v -195.106 -5.92311 -173.345
v -197.441 -5.92311 -172.605
v -200.269 -5.92311 -173.47
v -206.268 -5.92311 -172.579
v -213.691 -5.92311 -170.037
v -224.638 -5.92311 -162.73
v -228.108 -5.92311 -159.066
v -230.477 -5.92311 -155.852
v -232.673 -5.92311 -152.237
v -235.391 -5.92311 -142.834
v -236.825 -5.92311 -136.365
v -237.134 -5.92311 -125.675
v -237.134 -5.92311 -116.979
v -237.134 -5.92311 -81.3664
v -237.134 -5.92311 -51.2079
v -237.134 -5.92311 -0.68765
v -237.134 -5.92311 11.0728
v -234.978 -5.92311 21.4069
v -232.726 -5.92311 27.5514
v -232.064 -5.92311 29.4066
v -231.107 -5.92311 31.9665
v -228.773 -5.92311 37.8463
v -225.096 -5.92311 46.2429
v -220.194 -5.92311 60.0527
v -207.66 -5.92311 79.2124
v -186.824 -5.92311 99.7707
v -169.07 -5.92311 111.298
v -154.028 -5.92311 115.869
v -131.405 -5.92311 119.782
v -113.721 -5.92311 119.782
v -91.0977 -5.92311 115.869
v -76.0557 -5.92311 111.298
v -58.3017 -5.92311 99.7707
v -43.2435 -5.92311 84.913
v -37.8005 -5.92311 78.9388
v -33.0226 -5.92311 72.4204
v -24.9316 -5.92311 60.0527
v -21.9689 -5.92311 51.7063
v -19.933 -5.92311 46.2811
v -17.7039 -5.92311 40.9324
v -16.3524 -5.92311 37.8463
v -14.0191 -5.92311 31.9665
v -13.062 -5.92311 29.4066
v -12.3994 -5.92311 27.5514
v -11.9701 -5.92311 23.0633
v -7.99128 -5.92311 6.60051
v -8.15936 -5.92311 3.99168
v -36.508 5.47689 -16.9231
v -36.508 5.47689 -11.2979
v -36.508 5.47689 1.56776
v -36.6711 5.47689 4.0991
v -35.281 5.47689 16.1002
v -35.3868 5.47689 17.9331
v -35.5073 5.47689 19.251
v -36.436 5.47689 21.735
v -37.4366 5.47689 24.7612
v -38.353 5.47689 27.3383
v -40.6827 5.47689 32.3813
v -43.8878 5.47689 36.9186
v -49.4639 5.47689 43.4574
v -53.5581 5.47689 50.1596
v -58.0171 5.47689 56.6045
v -63.1788 5.47689 62.5017
v -74.3557 5.47689 73.8934
v -84.9377 5.47689 81.8348
v -96.3975 5.47689 85.6243
v -113.966 5.47689 89.0153
v -131.102 5.47689 89.0153
v -148.67 5.47689 85.6243
v -160.13 5.47689 81.8348
v -170.712 5.47689 73.8934
v -187.404 5.47689 56.8802
v -195.604 5.47689 43.4574
v -204.83 5.47689 32.6384
v -207.631 5.47689 24.7612
v -208.632 5.47689 21.735
v -209.56 5.47689 19.251
v -209.842 5.47689 17.7322
v -209.787 5.47689 16.1002
v -208.397 5.47689 8.43854
v -208.397 5.47689 -2.97258
v -208.397 5.47689 -51.9922
v -208.397 5.47689 -81.255
v -208.397 5.47689 -115.81
v -208.397 5.47689 -124.248
v -208.697 5.47689 -129.143
v -207.854 5.47689 -135.42
v -207.349 5.47689 -137.559
v -206.514 5.47689 -139.013
v -206.139 5.47689 -139.713
v -205.311 5.47689 -140.816
v -202.093 5.47689 -143.588
v -199.359 5.47689 -144.837
v -196.474 5.47689 -145.507
v -186.04 5.47689 -146.347
v -180.22 5.47689 -148.784
v -173.283 5.47689 -153.244
v -169.394 5.47689 -157.043
v -162.141 5.47689 -166.121
v -157.209 5.47689 -180.023
v -156.825 5.47689 -183.72
v -156.486 5.47689 -192.875
v -156.584 5.47689 -195.696
v -156.697 5.47689 -209.058
v -156.332 5.47689 -213.899
v -154.806 5.47689 -219.234
v -148.268 5.47689 -234.132
v -146.481 5.47689 -236.881
v -142.268 5.47689 -241.805
v -141.312 5.47689 -242.722
v -140.439 5.47689 -243.242
v -137.392 5.47689 -244.301
v -136.34 5.47689 -244.387
v -131.438 5.47689 -244.387
v -112.473 5.47689 -244.387
v -94.4727 5.47689 -244.877
v -87.2757 5.47689 -244.908
v -68.2304 5.47689 -244.467
v -60.8373 5.47689 -244.467
v -55.9353 5.47689 -244.467
v -54.8834 5.47689 -244.381
v -51.8361 5.47689 -243.322
v -50.964 5.47689 -242.803
v -50.0072 5.47689 -241.885
v -45.7945 5.47689 -234.39
v -44.0078 5.47689 -231.64
v -37.4698 5.47689 -216.742
v -35.9432 5.47689 -211.408
v -35.5782 5.47689 -206.567
v -35.6918 5.47689 -193.204
v -32.3864 5.47689 -190.553
v -32.3864 5.47689 -66.8315
v -36.508 5.47689 -62.2912
v -36.508 5.47689 -33.9594
v -36.508 5.47689 -17.881
v -8.15936 5.47689 -9.2678
v -8.15936 5.47689 -15.0652
v -8.15936 5.47689 -16.0524
v -8.15936 5.47689 -32.623
v -8.15936 5.47689 -61.8221
v -12.4072 5.47689 -66.5015
v -12.4072 5.47689 -191.87
v -8.66055 5.47689 -194.903
v -9.11764 5.47689 -213.863
v -10.311 5.47689 -222.538
v -12.9994 5.47689 -230.98
v -21.9226 5.47689 -250.157
v -25.8766 5.47689 -255.6
v -34.1872 5.47689 -266.744
v -39.2074 5.47689 -269.926
v -43.4733 5.47689 -271.637
v -51.3725 5.47689 -273.503
v -53.9256 5.47689 -273.637
v -58.9776 5.47689 -273.637
v -66.5971 5.47689 -273.637
v -86.2254 5.47689 -273.637
v -93.6426 5.47689 -273.554
v -112.194 5.47689 -273.554
v -131.74 5.47689 -273.554
v -136.792 5.47689 -273.554
v -139.345 5.47689 -273.42
v -147.244 5.47689 -271.554
v -151.51 5.47689 -269.843
v -156.53 5.47689 -266.661
v -164.841 5.47689 -258.167
v -168.795 5.47689 -252.724
v -177.718 5.47689 -233.547
v -180.406 5.47689 -225.106
v -181.6 5.47689 -216.431
v -181.717 5.47689 -199.31
v -181.993 5.47689 -196.394
v -183.069 5.47689 -187.954
v -183.795 5.47689 -184.143
v -186.943 5.47689 -179.657
v -190.373 5.47689 -176.546
v -192.819 5.47689 -174.267
v -195.106 5.47689 -173.345
v -197.441 5.47689 -172.605
v -200.269 5.47689 -173.47
v -206.268 5.47689 -172.579
v -213.691 5.47689 -170.037
v -224.638 5.47689 -162.73
v -228.108 5.47689 -159.066
v -230.477 5.47689 -155.852
v -232.673 5.47689 -152.237
v -235.391 5.47689 -142.834
v -236.825 5.47689 -136.365
v -237.134 5.47689 -125.675
v -237.134 5.47689 -116.979
v -237.134 5.47689 -81.3664
v -237.134 5.47689 -51.2079
v -237.134 5.47689 -0.68765
v -237.134 5.47689 11.0728
v -234.978 5.47689 21.4069
v -232.726 5.47689 27.5514
v -232.064 5.47689 29.4066
v -231.107 5.47689 31.9665
v -228.773 5.47689 37.8463
v -225.096 5.47689 46.2429
v -220.194 5.47689 60.0527
v -207.66 5.47689 79.2124
v -186.824 5.47689 99.7707
v -169.07 5.47689 111.298
v -154.028 5.47689 115.869
v -131.405 5.47689 119.782
v -113.721 5.47689 119.782
v -91.0977 5.47689 115.869
v -76.0557 5.47689 111.298
v -58.3017 5.47689 99.7707
v -43.2435 5.47689 84.913
v -37.8005 5.47689 78.9388
v -33.0226 5.47689 72.4204
v -24.9316 5.47689 60.0527
v -21.9689 5.47689 51.7063
v -19.933 5.47689 46.2811
v -17.7039 5.47689 40.9324
v -16.3524 5.47689 37.8463
v -14.0191 5.47689 31.9665
v -13.062 5.47689 29.4066
v -12.3994 5.47689 27.5514
v -11.9701 5.47689 23.0633
v -7.99128 5.47689 6.60051
v -8.15936 5.47689 3.99168
vn 1 0 0
vn 0.999483 0 0.0321641
vn 0.999675 0 -0.0254875
vn 0.999584 0 -0.0288281
vn 0.997231 0 0.0743655
vn 0.974905 0 0.222621
vn 0.943237 0 0.33212
vn 0.945886 0 0.324499
vn 0.925965 0 0.377608
vn 0.865885 0 0.500244
vn 0.789656 0 0.61355
vn 0.809652 0 0.586911
vn 0.838208 0 0.545351
vn 0.788689 0 0.614793
vn 0.733432 0 0.679762
vn 0.658903 0 0.752228
vn 0.463179 0 0.886265
vn 0.252258 0 0.96766
vn 0.0951901 0 0.995459
vn -0.0951902 0 0.995459
vn -0.252258 0 0.96766
vn -0.463178 0 0.886265
vn -0.658902 0 0.752229
vn -0.788689 0 0.614793
vn -0.809652 0 0.58691
vn -0.865885 0 0.500244
vn -0.945886 0 0.3245
vn -0.943236 0 0.332122
vn -0.963651 0 0.267164
vn -0.997209 0 0.0746645
vn -0.994328 0 -0.10636
vn -0.995976 0 -0.0896231
vn -1 0 0
vn -0.999532 0 0.0305891
vn -0.999347 0 -0.0361278
vn -0.983372 0 -0.181603
vn -0.929913 0 -0.36778
vn -0.874374 0 -0.485253
vn -0.843134 0 -0.537704
vn -0.730539 0 -0.682871
vn -0.539361 0 -0.842075
vn -0.322414 0 -0.946599
vn -0.153653 0 -0.988125
vn -0.236247 0 -0.971693
vn -0.465348 0 -0.885128
vn -0.622949 0 -0.782262
vn -0.741411 0 -0.671051
vn -0.873956 0 -0.486005
vn -0.975427 0 -0.220322
vn -0.997538 0 -0.0701234
vn -0.999999 0 -0.00125012
vn -0.999769 0 0.0214991
vn -0.999443 0 -0.0333708
vn -0.984379 0 -0.17606
vn -0.940694 0 -0.339256
vn -0.880025 0 -0.474928
vn -0.800902 0 -0.598795
vn -0.72691 0 -0.686733
vn -0.605761 0 -0.795647
vn -0.422021 0 -0.906586
vn -0.206615 0 -0.978422
vn -0.0408521 0 -0.999165
vn 8.04577e-007 0 -1
vn -0.0136058 0 -0.999907
vn -0.015788 0 -0.999875
vn 0.00939365 0 -0.999956
vn 0.0115752 0 -0.999933
vn 0 0 -1
vn 0.0408451 0 -0.999165
vn 0.206612 0 -0.978423
vn 0.422013 0 -0.90659
vn 0.605762 0 -0.795646
vn 0.790531 0 -0.612422
vn 0.855571 0 -0.517686
vn 0.880026 0 -0.474926
vn 0.940694 0 -0.339255
vn 0.984379 0 -0.176061
vn 0.999443 0 -0.0333724
vn 0.999964 0 0.00850181
vn 0.625781 0 -0.779999
vn 0.740424 0 0.67214
vn -0.740424 0 0.67214
vn -0.629211 0 -0.777234
vn -0.99971 0 0.0241004
vn -0.996769 0 0.0803181
vn -0.975345 0 0.220684
vn -0.931633 0 0.363401
vn -0.861851 0 0.507161
vn -0.805357 0 0.59279
vn -0.679797 0 0.7334
vn -0.45571 0 0.890128
vn -0.30193 0 0.95333
vn -0.1417 0 0.98991
vn -0.0261564 0 0.999658
vn 0 0 1
vn 0.00558713 0 0.999984
vn 0.00558631 0 0.999984
vn -8.22502e-007 0 1
vn 0.0261566 0 0.999658
vn 0.141699 0 0.98991
vn 0.301929 0 0.953331
vn 0.45571 0 0.890128
vn 0.629278 0 0.777181
vn 0.763951 0 0.645274
vn 0.861851 0 0.507161
vn 0.931633 0 0.363402
vn 0.975345 0 0.220684
vn 0.997425 0 0.0717105
vn 0.998721 0 0.0505621
vn 0.993894 0 0.110337
vn 0.987606 0 0.156954
vn 0.921027 0 0.389498
vn 0.749825 0 0.661636
vn 0.676733 0 0.736228
vn 0.536896 0 0.843649
vn 0.338362 0 0.941016
vn 0.00497333 0 0.999988
vn -0.0746516 0 0.99721
vn 0.236486 0 0.971635
vn 0.443278 0 0.896384
vn 0.644659 0 0.76447
vn 0.766964 0 0.641691
vn 0.830614 0 0.556849
vn 0.915654 0 0.401967
vn 0.96897 0 0.247178
vn 0.992379 0 0.123222
vn 0.999896 0 0.0144531
vn 0.994713 0 -0.102695
vn 0.961474 0 -0.274895
vn 0.940357 0 -0.340189
vn 0.939232 0 -0.343283
vn 0.933127 0 -0.359547
vn 0.92289 0 -0.385064
vn 0.929796 0 -0.368074
vn 0.89596 0 -0.444135
vn 0.773968 0 -0.633225
vn 0.62668 0 -0.779277
vn 0.421821 0 -0.906679
vn 0.23104 0 -0.972944
vn 0.0855267 0 -0.996336
vn -0.0855267 0 -0.996336
vn -0.23104 0 -0.972944
vn -0.421821 0 -0.906679
vn -0.62668 0 -0.779277
vn -0.721034 0 -0.6929
vn -0.773968 0 -0.633225
vn -0.821977 0 -0.56952
vn -0.89596 0 -0.444135
vn -0.939355 0 -0.342948
vn -0.929797 0 -0.368074
vn -0.919567 0 -0.392933
vn -0.92289 0 -0.385064
vn -0.933127 0 -0.359547
vn -0.939233 0 -0.343281
vn -0.976073 0 -0.217442
vn -0.986212 0 -0.165485
vn -0.99627 0 -0.0862917
vn -0.999483 0 0.0321644
vt 0 0
vt 1 0
vt 1 1
vt 0 1
mtllib Barandales_Chidos.mtl
usemtl Pista_lados
g Default
f 1/1/1 177/2/1 178/3/1 2/4/1
f 2/1/1 178/2/1 179/3/2 3/4/2
f 3/1/2 179/2/2 180/3/3 4/4/3
f 4/1/3 180/2/3 181/3/4 5/4/4
f 5/1/4 181/2/4 182/3/5 6/4/5
f 6/1/5 182/2/5 183/3/6 7/4/6
f 7/1/6 183/2/6 184/3/7 8/4/7
f 8/1/7 184/2/7 185/3/8 9/4/8
f 9/1/8 185/2/8 186/3/9 10/4/9
f 10/1/9 186/2/9 187/3/10 11/4/10
f 11/1/10 187/2/10 188/3/11 12/4/11
f 12/1/11 188/2/11 189/3/12 13/4/12
f 13/1/12 189/2/12 190/3/13 14/4/13
f 14/1/13 190/2/13 191/3/14 15/4/14
f 15/1/14 191/2/14 192/3/15 16/4/15
f 16/1/15 192/2/15 193/3/16 17/4/16
f 17/1/16 193/2/16 194/3/17 18/4/17
f 18/1/17 194/2/17 195/3/18 19/4/18
f 19/1/18 195/2/18 196/3/19 20/4/19
f 20/1/19 196/2/19 197/3/20 21/4/20
f 21/1/20 197/2/20 198/3/21 22/4/21
f 22/1/21 198/2/21 199/3/22 23/4/22
f 23/1/22 199/2/22 200/3/23 24/4/23
f 24/1/23 200/2/23 201/3/24 25/4/24
f 25/1/24 201/2/24 202/3/25 26/4/25
f 26/1/25 202/2/25 203/3/26 27/4/26
f 27/1/26 203/2/26 204/3/27 28/4/27
f 28/1/27 204/2/27 205/3/28 29/4/28
f 29/1/28 205/2/28 206/3/29 30/4/29
f 30/1/29 206/2/29 207/3/30 31/4/30
f 31/1/30 207/2/30 208/3/31 32/4/31
f 32/1/31 208/2/31 209/3/32 33/4/32
f 33/1/32 209/2/32 210/3/33 34/4/33
f 34/1/33 210/2/33 211/3/33 35/4/33
f 35/1/33 211/2/33 212/3/33 36/4/33
f 36/1/33 212/2/33 213/3/33 37/4/33
f 37/1/33 213/2/33 214/3/34 38/4/34
f 38/1/34 214/2/34 215/3/35 39/4/35
f 39/1/35 215/2/35 216/3/36 40/4/36
f 40/1/36 216/2/36 217/3/37 41/4/37
f 41/1/37 217/2/37 218/3/38 42/4/38
f 42/1/38 218/2/38 219/3/39 43/4/39
f 43/1/39 219/2/39 220/3/40 44/4/40
f 44/1/40 220/2/40 221/3/41 45/4/41
f 45/1/41 221/2/41 222/3/42 46/4/42
f 46/1/42 222/2/42 223/3/43 47/4/43
f 47/1/43 223/2/43 224/3/44 48/4/44
f 48/1/44 224/2/44 225/3/45 49/4/45
f 49/1/45 225/2/45 226/3/46 50/4/46
f 50/1/46 226/2/46 227/3/47 51/4/47
f 51/1/47 227/2/47 228/3/48 52/4/48
f 52/1/48 228/2/48 229/3/49 53/4/49
f 53/1/49 229/2/49 230/3/50 54/4/50
f 54/1/50 230/2/50 231/3/51 55/4/51
f 55/1/51 231/2/51 232/3/52 56/4/52
f 56/1/52 232/2/52 233/3/53 57/4/53
f 57/1/53 233/2/53 234/3/54 58/4/54
f 58/1/54 234/2/54 235/3/55 59/4/55
f 59/1/55 235/2/55 236/3/56 60/4/56
f 60/1/56 236/2/56 237/3/57 61/4/57
f 61/1/57 237/2/57 238/3/58 62/4/58
f 62/1/58 238/2/58 239/3/59 63/4/59
f 63/1/59 239/2/59 240/3/60 64/4/60
f 64/1/60 240/2/60 241/3/61 65/4/61
f 65/1/61 241/2/61 242/3/62 66/4/62
f 66/1/62 242/2/62 243/3/63 67/4/63
f 67/1/63 243/2/63 244/3/64 68/4/64
f 68/1/64 244/2/64 245/3/65 69/4/65
f 69/1/65 245/2/65 246/3/66 70/4/66
f 70/1/66 246/2/66 247/3/67 71/4/67
f 71/1/67 247/2/67 248/3/68 72/4/68
f 72/1/68 248/2/68 249/3/69 73/4/69
f 73/1/69 249/2/69 250/3/70 74/4/70
f 74/1/70 250/2/70 251/3/71 75/4/71
f 75/1/71 251/2/71 252/3/72 76/4/72
f 76/1/72 252/2/72 253/3/73 77/4/73
f 77/1/73 253/2/73 254/3/74 78/4/74
f 78/1/74 254/2/74 255/3/75 79/4/75
f 79/1/75 255/2/75 256/3/76 80/4/76
f 80/1/76 256/2/76 257/3/77 81/4/77
f 81/1/77 257/2/77 258/3/78 82/4/78
f 82/1/78 258/2/78 259/3/79 83/4/79
f 83/1/80 259/2/80 260/3/80 84/4/80
f 84/1/1 260/2/1 261/3/1 85/4/1
f 85/1/81 261/2/81 262/3/81 86/4/81
f 86/1/1 262/2/1 263/3/1 87/4/1
f 87/1/1 263/2/1 264/3/1 88/4/1
f 88/1/1 264/2/1 177/3/1 1/4/1
f 89/1/33 265/2/33 266/3/33 90/4/33
f 90/1/33 266/2/33 267/3/33 91/4/33
f 91/1/33 267/2/33 268/3/33 92/4/33
f 92/1/33 268/2/33 269/3/33 93/4/33
f 93/1/82 269/2/82 270/3/82 94/4/82
f 94/1/33 270/2/33 271/3/33 95/4/33
f 95/1/83 271/2/83 272/3/83 96/4/83
f 96/1/84 272/2/84 273/3/85 97/4/85
f 97/1/85 273/2/85 274/3/86 98/4/86
f 98/1/86 274/2/86 275/3/87 99/4/87
f 99/1/87 275/2/87 276/3/88 100/4/88
f 100/1/88 276/2/88 277/3/89 101/4/89
f 101/1/89 277/2/89 278/3/90 102/4/90
f 102/1/90 278/2/90 279/3/91 103/4/91
f 103/1/91 279/2/91 280/3/92 104/4/92
f 104/1/92 280/2/92 281/3/93 105/4/93
f 105/1/93 281/2/93 282/3/94 106/4/94
f 106/1/94 282/2/94 283/3/95 107/4/95
f 107/1/95 283/2/95 284/3/95 108/4/95
f 108/1/95 284/2/95 285/3/96 109/4/96
f 109/1/96 285/2/96 286/3/97 110/4/97
f 110/1/97 286/2/97 287/3/98 111/4/98
f 111/1/98 287/2/98 288/3/95 112/4/95
f 112/1/95 288/2/95 289/3/99 113/4/99
f 113/1/99 289/2/99 290/3/100 114/4/100
f 114/1/100 290/2/100 291/3/101 115/4/101
f 115/1/101 291/2/101 292/3/102 116/4/102
f 116/1/102 292/2/102 293/3/103 117/4/103
f 117/1/103 293/2/103 294/3/104 118/4/104
f 118/1/104 294/2/104 295/3/105 119/4/105
f 119/1/105 295/2/105 296/3/106 120/4/106
f 120/1/106 296/2/106 297/3/107 121/4/107
f 121/1/107 297/2/107 298/3/108 122/4/108
f 122/1/108 298/2/108 299/3/109 123/4/109
f 123/1/109 299/2/109 300/3/110 124/4/110
f 124/1/110 300/2/110 301/3/111 125/4/111
f 125/1/111 301/2/111 302/3/112 126/4/112
f 126/1/112 302/2/112 303/3/113 127/4/113
f 127/1/113 303/2/113 304/3/114 128/4/114
f 128/1/114 304/2/114 305/3/115 129/4/115
f 129/1/115 305/2/115 306/3/116 130/4/116
f 130/1/116 306/2/116 307/3/117 131/4/117
f 131/1/117 307/2/117 308/3/118 132/4/118
f 132/1/118 308/2/118 309/3/119 133/4/119
f 133/1/119 309/2/119 310/3/120 134/4/120
f 134/1/120 310/2/120 311/3/121 135/4/121
f 135/1/121 311/2/121 312/3/122 136/4/122
f 136/1/122 312/2/122 313/3/123 137/4/123
f 137/1/123 313/2/123 314/3/124 138/4/124
f 138/1/124 314/2/124 315/3/125 139/4/125
f 139/1/125 315/2/125 316/3/126 140/4/126
f 140/1/126 316/2/126 317/3/127 141/4/127
f 141/1/127 317/2/127 318/3/1 142/4/1
f 142/1/1 318/2/1 319/3/1 143/4/1
f 143/1/1 319/2/1 320/3/1 144/4/1
f 144/1/1 320/2/1 321/3/1 145/4/1
f 145/1/1 321/2/1 322/3/128 146/4/128
f 146/1/128 322/2/128 323/3/129 147/4/129
f 147/1/129 323/2/129 324/3/130 148/4/130
f 148/1/130 324/2/130 325/3/131 149/4/131
f 149/1/131 325/2/131 326/3/132 150/4/132
f 150/1/132 326/2/132 327/3/133 151/4/133
f 151/1/133 327/2/133 328/3/134 152/4/134
f 152/1/134 328/2/134 329/3/135 153/4/135
f 153/1/135 329/2/135 330/3/136 154/4/136
f 154/1/136 330/2/136 331/3/137 155/4/137
f 155/1/137 331/2/137 332/3/138 156/4/138
f 156/1/138 332/2/138 333/3/139 157/4/139
f 157/1/139 333/2/139 334/3/140 158/4/140
f 158/1/140 334/2/140 335/3/141 159/4/141
f 159/1/141 335/2/141 336/3/142 160/4/142
f 160/1/142 336/2/142 337/3/143 161/4/143
f 161/1/143 337/2/143 338/3/144 162/4/144
f 162/1/144 338/2/144 339/3/145 163/4/145
f 163/1/145 339/2/145 340/3/146 164/4/146
f 164/1/146 340/2/146 341/3/147 165/4/147
f 165/1/147 341/2/147 342/3/148 166/4/148
f 166/1/148 342/2/148 343/3/149 167/4/149
f 167/1/149 343/2/149 344/3/150 168/4/150
f 168/1/150 344/2/150 345/3/151 169/4/151
f 169/1/151 345/2/151 346/3/152 170/4/152
f 170/1/152 346/2/152 347/3/153 171/4/153
f 171/1/153 347/2/153 348/3/154 172/4/154
f 172/1/154 348/2/154 349/3/155 173/4/155
f 173/1/155 349/2/155 350/3/156 174/4/156
f 174/1/156 350/2/156 351/3/157 175/4/157
f 175/1/157 351/2/157 352/3/158 176/4/158
f 176/1/158 352/2/158 265/3/33 89/4/33
