# OBJ written from C:\Users\ALD1YO\Documents\Bacon_Racing\Pista_Bambu\Exports\Cascada.obj
# Units	meters

o Cascada
v -249.139 6.67409 -94.8949
v -249.139 6.67409 -54.1051
v -249.139 -15.6206 -54.1051
v -249.139 -15.6206 -94.8949
v -249.139 17.9866 -94.8949
v -249.139 17.9866 -54.1051
v -252.089 27.9416 -93.3653
v -252.089 27.9416 -55.6347
v -259.184 92.9206 -89.6866
v -259.184 92.9206 -59.3134
v -317.762 92.9206 -89.6866
v -317.762 92.9206 -59.3134
v -261.908 -20.2635 -6.8925
v -316.092 -20.2635 -6.8925
v -261.908 3.3175 -6.8925
v -316.092 3.3175 -6.8925
v -316.092 15.8175 -6.8925
v -261.908 15.8175 -6.8925
v -312.833 26.8175 -11.9631
v -265.167 26.8175 -11.9631
v -306.747 81.5879 -21.2654
v -271.253 81.5879 -21.2654
v -327.668 -20.7905 -18.2268
v -327.668 3.3175 -20.0937
v -250.332 3.3175 -20.0937
v -250.332 -20.7905 -18.2268
v -327.57 16.5553 -20.6661
v -250.43 16.5553 -20.6661
v -324.394 27.1095 -24.2596
v -253.606 27.1095 -24.2596
v -315.556 91.8816 -28.5078
v -262.444 91.8816 -28.5078
v -316.092 -21.3175 -142.107
v -261.908 -21.3175 -142.107
v -316.092 3.3175 -142.107
v -261.908 3.3175 -142.107
v -316.092 15.8175 -142.107
v -261.908 15.8175 -142.107
v -312.833 26.8175 -137.037
v -265.167 26.8175 -137.037
v -306.747 81.5879 -127.735
v -271.253 81.5879 -127.735
v -250.332 -21.3175 -128.906
v -250.332 3.3175 -128.906
v -327.668 -21.3175 -128.906
v -327.668 3.3175 -128.906
v -250.43 16.5553 -128.334
v -327.57 16.5553 -128.334
v -253.606 27.1095 -124.74
v -324.394 27.1095 -124.74
v -262.444 91.8816 -120.492
v -315.556 91.8816 -120.492
v -245.538 -21.3175 -97.0358
v -332.462 -21.3175 -97.0358
v -245.538 -21.3175 -51.9642
v -332.462 -21.3175 -51.9642
v -245.538 3.3175 -97.0358
v -245.538 3.3175 -51.9642
v -332.462 3.3175 -97.0358
v -332.462 3.3175 -51.9642
v -332.462 15.8175 -97.0358
v -332.462 15.8175 -51.9642
v -245.538 15.8175 -97.0358
v -245.538 15.8175 -51.9642
v -329.203 26.8175 -95.3456
v -329.203 26.8175 -53.6544
v -248.797 26.8175 -95.3456
v -248.797 26.8175 -53.6544
v -321.363 98.6175 -91.2807
v -321.363 98.6175 -57.7193
v -256.637 98.6175 -91.2807
v -256.637 98.6175 -57.7193
vn 6.48226 5.33022 -132.434
vn -6.48226 5.33021 -132.434
vn -4.20937 4.79647 -133.635
vn 4.20937 4.79647 -133.635
vn -6.48226 5.33021 132.434
vn 6.48226 5.33022 132.434
vn 4.20937 4.79647 133.635
vn -4.20937 4.79647 133.635
vn 6.72872 4.24922 -132.692
vn -6.72872 4.24921 -132.692
vn -6.72872 4.24921 132.692
vn 6.72872 4.24922 132.692
vn 6.76966 0.166359 -133.351
vn -6.76966 0.166358 -133.351
vn -6.33122 0.41857 133.581
vn 6.76894 0.415766 133.346
vn 6.76991 0 -133.352
vn -6.76991 0 -133.352
vn 0 34.4142 -79.8179
vn 40.925 0 0
vn 39.2019 12.2411 0
vn 40.4672 6.35937 0
vn -38.9133 8.82277 -31.1497
vn -39.4313 4.85701 -32.7564
vn -35.8499 4.60601 -63.5608
vn -35.6743 8.43508 -60.6203
vn 35.6743 8.43512 -60.6203
vn 35.8499 4.60602 -63.5608
vn 0 42.635 0
vn -39.3746 6.56481 -30.423
vn -36.2665 6.43358 -59.238
vn 36.2665 6.43361 -59.238
vn -36.6467 0.275951 -60.1834
vn -39.8411 0.141728 -30.91
vn 0 34.4142 79.8179
vn 35.6743 8.43512 60.6203
vn 35.8499 4.60602 63.5608
vn -38.9133 8.82277 31.1497
vn -35.6743 8.43509 60.6203
vn -35.8499 4.60601 63.5608
vn -39.4313 4.85701 32.7564
vn 36.2665 6.43362 59.238
vn -39.3746 6.56481 30.423
vn -36.2665 6.43359 59.238
vn 36.8475 0.275972 58.8298
vn 13.3529 0.328136 -127.811
vn 13.3533 0 -127.815
vn -13.3533 0 -127.815
vn -13.3529 0.328134 -127.811
vn -36.8475 0.275969 58.8297
vn -39.8927 0.141549 30.1748
vn -39.9431 0 29.4414
vn -37.0445 0 57.47
vn 12.8127 6.31366 -126.847
vn 13.2906 5.30842 -126.773
vn 0 3.74729 -134.692
vn 3.70273 1.94561 -134.519
vn 34.1778 23.4514 0
vn 3.70273 1.94562 134.519
vn 0 3.7473 134.692
vn 7.40457 0.243211 -132.981
vn -39.8413 0 -30.9109
vn 7.40458 0.243218 132.981
vn 7.34355 0.180945 -133.019
vn 7.34357 0.180951 133.019
vn 7.24638 0 -133.078
vn 7.24639 0 133.078
vn 34.1777 23.4515 0
vn 7.24639 0 133.078
vn -6.32272 6.04754 -132.208
vn 6.32272 6.04754 -132.208
vn -12.8127 6.31365 -126.847
vn -13.2906 5.30841 -126.773
vn 37.0445 0 57.4702
vn 6.32272 6.04754 132.208
vn -6.32272 6.04754 132.208
vn 12.8127 6.31366 126.847
vn -12.8127 6.31365 126.847
vn 13.2906 5.30843 126.773
vn -13.2906 5.30841 126.773
vn 13.3508 0.820042 127.791
vn 36.6467 0.275954 -60.1834
vn 36.6475 0 -60.1847
vn -36.6475 0 -60.1846
vn -12.5109 0.827119 128.715
vn 6.76855 0.498813 133.343
vn 13.3497 0.983818 127.781
vn -11.664 0.997589 129.568
vn -5.89384 0.504085 133.796
vn 40.0568 8.73534 0
vn 40.6628 4.81859 0
vt 0 0.666667
vt 0.762819 0.666667
vt 0.762819 0.666667
vt 1 0.666667
vt 0.797081 0.666667
vt 0.797081 0.333333
vt 0.952919 0.333333
vt 0.952919 0.666667
vt 0.25 0.888889
vt 0.5 0.888889
vt 0.5 1
vt 0.25 1
vt 0.666667 0.666667
vt 0.583333 0.666667
vt 0.583333 0.333333
vt 0.666667 0.333333
vt 0.88141 0.666667
vt 0.25 0.777778
vt 0.5 0.777778
vt 0.25 0.666667
vt 0.5 0.666667
vt 0.731874 0.666667
vt 0.731874 0.333333
vt -0.0833333 0.666667
vt -0.0833333 0.333333
vt 0 0.333333
vt 0.166667 0.333333
vt 0.231874 0.448711
vt 0.231874 0.666667
vt 0.166667 0.666667
vt 0 0.777778
vt 1 0.777778
vt 0 0.888889
vt 1 0.888889
vt 0.0833333 0.333333
vt 0.0833333 0.666667
vt 0 0.222222
vt 0 0.111111
vt 1 0.111111
vt 1 0.222222
vt 1 0.333333
vt 0.5 1.11111
vt 0.25 1.11111
vt 0.518126 0.666667
vt 0.518126 0.448711
vt 0.25 0.555556
vt 0.5 0.555556
vt 0.452919 0.666667
vt 0.452919 0.564089
vt 0.297081 0.564089
vt 0.297081 0.666667
mtllib Cascada.mtl
usemtl Cascada
g Default
f 40/1/1 39/1/2 41/2/3 42/2/4
f 19/1/5 20/1/6 22/2/7 21/3/8
f 38/1/9 37/1/10 39/4/2 40/4/1
f 17/1/11 18/1/12 20/4/6 19/4/5
f 36/1/13 35/1/14 37/4/10 38/4/9
f 16/1/15 15/1/16 18/4/12 17/4/11
f 36/5/13 34/6/17 33/7/18 35/8/14
f 69/9/19 71/10/19 51/11/19 52/12/19
f 65/1/23 69/4/24 52/17/25 50/1/26
f 67/1/27 49/1/27 51/17/28 71/4/28
f 61/1/30 65/4/23 50/4/26 48/1/31
f 63/1/32 47/1/32 49/4/27 67/4/27
f 46/1/33 59/1/34 61/4/30 48/4/31
f 72/19/35 70/18/35 31/20/35 32/21/35
f 68/1/36 72/4/37 32/17/37 30/1/36
f 66/1/38 29/1/39 31/17/40 70/4/41
f 64/1/42 68/4/36 30/4/36 28/1/42
f 62/1/43 27/1/44 29/4/39 66/4/38
f 25/1/45 58/1/45 64/4/42 28/4/42
f 44/22/46 43/23/47 34/6/17 36/5/13
f 35/24/14 33/25/18 45/26/48 46/1/49
f 24/1/50 27/4/44 62/4/43 60/1/51
f 56/27/52 23/28/53 24/29/50 60/30/51
f 38/1/9 40/4/1 49/4/54 47/1/55
f 54/35/62 56/27/52 60/30/51 59/36/34
f 59/1/34 60/1/51 62/4/43 61/4/30
f 61/1/30 62/1/43 66/4/38 65/4/23
f 65/1/23 66/1/38 70/4/41 69/4/24
f 52/12/70 51/11/71 42/42/4 41/43/3
f 50/1/72 52/17/70 41/2/3 39/1/2
f 49/1/54 40/1/1 42/2/4 51/17/71
f 37/1/10 48/1/73 50/4/72 39/4/2
f 46/1/49 48/4/73 37/4/10 35/1/14
f 55/15/74 58/14/45 25/44/45 26/45/74
f 44/1/46 36/1/13 38/4/9 47/4/55
f 32/21/75 31/20/76 21/46/8 22/47/7
f 30/1/77 32/17/75 22/2/7 20/1/6
f 29/1/78 19/1/5 21/3/8 31/17/76
f 18/1/12 28/1/79 30/4/77 20/4/6
f 17/1/11 19/4/5 29/4/78 27/1/80
f 25/1/81 28/4/79 18/4/12 15/1/16
f 57/13/82 53/16/83 43/23/83 44/22/82
f 46/1/33 45/26/84 54/35/62 59/36/34
f 44/1/82 47/4/32 63/4/32 57/1/82
f 24/1/85 16/1/15 17/4/11 27/4/80
f 25/44/81 15/48/16 13/49/86 26/45/87
f 23/28/88 14/50/89 16/51/15 24/29/85
f 14/50/89 13/49/86 15/48/16 16/51/15
usemtl Cascada_agua
f 1/13/20 2/14/20 3/15/21 4/16/21
f 5/4/22 6/4/22 2/1/20 1/1/20
f 11/9/29 12/18/29 10/19/29 9/10/29
f 55/37/68 53/38/68 4/39/21 3/40/21
f 8/1/90 7/1/90 9/4/91 10/4/91
f 6/1/22 5/1/22 7/4/90 8/4/90
usemtl Cascada_erosion
f 70/31/56 72/31/57 10/32/57 12/32/56
f 69/1/58 70/1/58 12/4/58 11/4/58
f 71/33/59 69/33/60 11/34/60 9/34/59
f 72/1/57 68/1/61 8/4/61 10/4/57
f 71/1/59 9/4/59 7/4/63 67/1/63
f 64/1/64 6/4/64 8/4/61 68/1/61
f 63/1/65 67/1/63 7/4/63 5/4/65
f 64/1/64 58/1/66 2/4/66 6/4/64
f 57/1/67 63/1/65 5/4/65 1/4/67
f 58/1/66 55/26/66 3/41/66 2/4/66
f 53/26/69 57/1/67 1/4/67 4/41/69
