# OBJ written from C:\Users\Lenovo\Documents\Bacon_Racing\Pista_Bambu\props\Piedra_3.obj
# Units	meters

o Piedra_3
v -40.5021 0.00497791 -74.4385
v -41.7994 0.107078 -73.8745
v -42.257 0.208168 -72.6072
v -41.3735 -0.0435781 -71.5909
v -39.7821 -0.0516832 -71.5909
v -38.7585 0.154087 -72.6072
v -39.2048 -0.097122 -73.8745
v -40.412 1.14998 -74.376
v -41.6523 1.2476 -73.8368
v -41.9587 1.27171 -72.6251
v -41.1003 1.20416 -71.6534
v -39.7236 1.09581 -71.6534
v -38.8653 1.02826 -72.6251
v -39.1716 1.05236 -73.8368
v -41.6161 1.79138 -73.7725
v -40.4727 1.7014 -74.2696
v -41.8985 1.81361 -72.6556
v -41.1072 1.75134 -71.7598
v -39.8382 1.65146 -71.7598
v -39.1504 1.59733 -72.6556
v -39.3293 1.61141 -73.7725
v -41.2733 2.20692 -73.5169
v -40.5157 2.1473 -73.8462
v -39.7581 2.08767 -73.5169
v -39.3381 2.05462 -72.7767
v -40.1014 2.03659 -72.1832
v -40.9494 2.01223 -72.1832
v -41.4605 2.22165 -72.7767
v -41.2291 2.38566 -73.4113
v -40.6308 2.33857 -73.6714
v -40.0325 2.29147 -73.4113
v -39.8847 2.27984 -72.8268
v -40.2988 2.31243 -72.358
v -40.9629 2.3647 -72.358
v -41.3769 2.39729 -72.8268
v -44.2963 1.20355 -78.2322
v -46.7275 1.20355 -77.2077
v -47.328 1.20355 -74.9058
v -45.6455 1.20355 -73.0598
v -42.9471 1.20355 -73.0598
v -41.2646 1.20355 -74.9058
v -41.8651 1.20355 -77.2077
v -44.3861 0.0250914 -78.3483
v -46.9265 0.0250914 -77.2778
v -47.5539 0.0250914 -74.8726
v -45.7959 0.0250914 -72.9437
v -42.9763 0.0250914 -72.9437
v -41.2183 0.0250914 -74.8726
v -41.8457 0.0250914 -77.2778
v -46.0308 3.95732 -76.7169
v -44.3637 3.95732 -77.4194
v -46.4425 3.95732 -75.1384
v -45.2888 3.95732 -73.8726
v -43.4385 3.77775 -73.8726
v -42.2848 3.95732 -75.1384
v -42.6965 3.95732 -76.7169
v -45.0761 5.28168 -76.3055
v -44.0494 5.28168 -76.7381
v -43.0227 5.28168 -76.3055
v -42.7692 5.28168 -75.3334
v -43.4797 5.28168 -74.5539
v -44.6191 5.12456 -74.5539
v -45.3296 5.28168 -75.3334
v -42.918 -0.108251 -73.8049
v -43.638 -0.0515854 -73.4919
v -43.8919 0.00451952 -72.7886
v -43.4016 -0.135199 -72.2245
v -42.5184 -0.139698 -72.2245
v -41.9503 -0.0254953 -72.7886
v -42.198 -0.164916 -73.4919
v -42.868 0.527227 -73.7703
v -43.5564 0.581405 -73.471
v -43.7264 0.594786 -72.7985
v -43.25 0.557294 -72.2592
v -42.4859 0.49716 -72.2592
v -42.0095 0.459668 -72.7985
v -42.1796 0.473049 -73.471
v -43.5362 0.883204 -73.4353
v -42.9017 0.833262 -73.7112
v -43.693 0.895539 -72.8154
v -43.2538 0.860978 -72.3183
v -42.5495 0.805546 -72.3183
v -42.1678 0.775505 -72.8154
v -42.2671 0.78332 -73.4353
v -43.346 1.11383 -73.2934
v -42.9255 1.08074 -73.4762
v -42.505 1.04764 -73.2934
v -42.272 1.0293 -72.8826
v -42.6956 1.0193 -72.5532
v -43.1662 1.00577 -72.5532
v -43.4499 1.122 -72.8826
v -43.3215 1.21302 -73.2348
v -42.9894 1.18689 -73.3792
v -42.6573 1.16076 -73.2348
v -42.5753 1.1543 -72.9104
v -42.8051 1.17239 -72.6503
v -43.1737 1.20139 -72.6503
v -43.4035 1.21948 -72.9104
vn -1.01021 0.278402 -2.37402
vn -1.01735 0.209865 -2.37802
vn -2.49843 0.292408 -0.637476
vn -2.49221 0.342417 -0.6369
vn -1.90252 0.433456 1.71072
vn -1.88039 0.556024 1.6997
vn 0.0245988 0.312557 2.57599
vn 0.0100441 0.127622 2.59184
vn 1.9248 0.506781 1.66504
vn 1.94467 -0.00558021 1.71821
vn 2.46669 0.522883 -0.61323
vn 2.50117 0.292672 -0.626526
vn 1.04764 0.305911 -2.35434
vn 1.03765 0.0481331 -2.37802
vn -0.872925 1.06329 -2.20033
vn -2.28305 1.07856 -0.598667
vn -1.92022 0.309882 1.71777
vn 0.102443 1.30166 2.24259
vn 1.85755 1.06939 1.46285
vn 2.19168 1.31567 -0.446753
vn 0.9989 1.18049 -2.08391
vn -1.2906 1.42087 -1.74628
vn -1.15339 1.72989 -1.55281
vn 0.0688428 1.7752 -1.89155
vn -0.288735 1.37928 -2.17905
vn 0.454104 1.43076 -2.11678
vn 1.27419 1.97619 -1.09779
vn 1.39253 1.50824 -1.58749
vn 1.85984 1.54765 -0.937969
vn 1.41086 2.17708 0.0616816
vn 1.40834 1.7499 1.29941
vn 0.318484 1.91152 1.72589
vn -0.29369 1.93109 1.70841
vn -0.280806 1.7146 1.92752
vn -0.414601 2.15178 1.38995
vn -0.696203 1.72385 1.81043
vn -1.67383 1.79266 0.847743
vn -1.46955 2.12193 0.268123
vn -2.02233 1.6253 -0.0512314
vn -1.86628 1.80264 -0.038792
vn -1.74223 1.59976 -1.06744
vn -1.87391 1.40221 -1.12085
vn -0.726315 1.54915 -1.95106
vn -0.777911 1.3989 -2.04254
vn 0.0244687 1.75873 -1.90796
vn 1.09875 2.06314 -1.12704
vn 0.829197 2.33295 -0.777043
vn 0.794664 2.44659 -0.341641
vn 1.60146 1.98704 -0.470133
vn 1.63239 1.85376 0.795547
vn 0.522552 2.47682 0.571234
vn 0.357109 2.26431 1.21631
vn 0.754544 1.79535 1.71505
vn -0.03933 1.36894 2.2042
vn -1.42194 1.59829 1.46887
vn -1.71942 0.810573 1.76652
vn -2.11527 1.39399 -0.562524
vn -2.34069 0.939433 -0.610469
vn 0.82935 2.4538 0.158291
vn 0.203601 2.587 2.3128e-007
vn 0.73071 -2.47897 0.234065
vn 0.99352 0.433313 -2.35779
vn 0.956638 0.815339 -2.27026
vn 2.47129 0.459581 -0.644633
vn 2.38668 0.806345 -0.622564
vn 1.88567 0.474022 1.7186
vn 1.78009 0.851409 1.68535
vn 0 0.496745 2.54701
vn 0.0521699 0.905837 2.43121
vn -1.8705 0.573609 1.70477
vn -1.72254 1.14116 1.56992
vn -2.44526 0.589831 -0.637844
vn -2.23757 1.17755 -0.583669
vn -0.989864 0.485654 -2.34911
vn -0.933543 0.976874 -2.21545
vn -1.00044 0.310161 -2.37422
vn -2.47196 0.455676 -0.64481
vn -1.89365 0.411672 1.72587
vn 0 0.254457 2.58249
vn 1.91573 0.124551 1.74599
vn 2.50978 0.0802061 -0.654674
vn 1.00579 0.158554 -2.3869
vn -1.98379 1.59085 -0.517471
vn -1.55628 1.51663 1.41839
vn 0.652494 0.954302 2.32327
vn 0.979813 1.04233 2.16507
vn 0.104066 1.07231 2.36079
vn 1.73827 0.887576 1.71017
vn 1.29414 0.980213 2.02445
vn 2.39376 0.783596 -0.624412
vn 0.941349 0.925862 -2.23398
vn -0.876867 1.27858 -2.08095
vn 0 2.595 0
vn -1.01021 0.278402 -2.37402
vn -1.01735 0.209865 -2.37802
vn -2.49843 0.292407 -0.637476
vn -2.49221 0.342418 -0.6369
vn -1.90252 0.433456 1.71072
vn -1.88039 0.556024 1.6997
vn 0.0245988 0.312558 2.57599
vn 0.0100441 0.127623 2.59184
vn 1.9248 0.506781 1.66504
vn 1.94467 -0.0055798 1.71821
vn 2.46669 0.522883 -0.613229
vn 2.50117 0.292672 -0.626526
vn 1.04764 0.305911 -2.35434
vn 1.03765 0.0481328 -2.37802
vn -0.872924 1.06329 -2.20033
vn -2.28305 1.07856 -0.598667
vn -1.92022 0.309882 1.71777
vn 0.102443 1.30166 2.24259
vn 1.85755 1.06939 1.46285
vn 2.19168 1.31567 -0.446752
vn 0.9989 1.18049 -2.08391
vn -1.2906 1.42087 -1.74628
vn -1.15339 1.72989 -1.55281
vn 0.0688427 1.7752 -1.89155
vn 0.454104 1.43076 -2.11678
vn 1.27419 1.97619 -1.09779
vn 1.39253 1.50824 -1.58749
vn 1.85984 1.54765 -0.937969
vn 1.41086 2.17708 0.0616816
vn 1.40834 1.7499 1.29941
vn 0.318484 1.91152 1.72589
vn -0.29369 1.93109 1.70841
vn -0.280806 1.7146 1.92752
vn -0.414601 2.15178 1.38995
vn -0.696203 1.72385 1.81043
vn -1.67383 1.79266 0.847743
vn -1.46955 2.12193 0.268123
vn -2.02233 1.6253 -0.0512313
vn -1.86628 1.80264 -0.0387916
vn -1.74223 1.59976 -1.06744
vn -1.87391 1.40221 -1.12085
vn -0.726315 1.54915 -1.95106
vn -0.777911 1.3989 -2.04254
vn 0.0244687 1.75873 -1.90796
vn 1.09875 2.06314 -1.12704
vn 0.829197 2.33295 -0.777043
vn 0.794664 2.44659 -0.341641
vn 1.63239 1.85376 0.795548
vn 0.522551 2.47682 0.571234
vn 0.357109 2.26431 1.21631
vn 0.754544 1.79535 1.71505
vn -0.0393301 1.36894 2.2042
vn -1.42194 1.59829 1.46887
vn -1.71942 0.810572 1.76652
vn -2.11527 1.39399 -0.562524
vn -2.34069 0.939429 -0.610468
vn 0.82935 2.4538 0.158291
vn 0.203601 2.587 1.66561e-007
vn 0.73071 -2.47897 0.234065
vt 0 0.5
vt 0 0
vt 0.142857 0
vt 0.142857 0.5
vt 0.285714 0
vt 0.285714 0.5
vt 0.428571 0
vt 0.428571 0.5
vt 0.571429 0
vt 0.571429 0.5
vt 0.714286 0
vt 0.714286 0.5
vt 0.857143 0
vt 0.857143 0.5
vt 1 0
vt 1 0.5
vt 1 1
vt 0 1
mtllib Piedra_3.mtl
usemtl cafe
g Default
f 8/1/1 1/2/2 2/3/2 9/4/1
f 9/4/3 2/3/4 3/5/4 10/6/3
f 10/6/5 3/5/6 4/7/6 11/8/5
f 11/8/7 4/7/8 5/9/8 12/10/7
f 12/10/9 5/9/10 6/11/10 13/12/9
f 13/12/11 6/11/12 7/13/12 14/14/11
f 14/14/13 7/13/14 1/15/14 8/16/13
f 9/2/1 15/15/15 16/17/15 8/18/1
f 10/2/3 17/15/16 15/17/16 9/18/3
f 11/2/5 18/15/17 17/17/17 10/18/5
f 12/2/7 19/15/18 18/17/18 11/18/7
f 13/2/9 20/15/19 19/17/19 12/18/9
f 14/2/11 21/15/20 20/17/20 13/18/11
f 8/2/13 16/15/21 21/17/21 14/18/13
f 15/2/22 22/15/23 23/17/24 16/18/25
f 16/2/26 23/15/24 24/17/27 21/18/28
f 21/2/29 24/15/27 25/17/30 20/18/20
f 20/2/19 25/15/31 26/17/31 19/18/19
f 19/2/18 26/15/32 27/17/33 18/18/34
f 18/2/35 27/15/36 28/17/37 17/18/38
f 17/2/39 28/15/40 22/17/41 15/18/42
f 22/2/43 29/15/44 30/17/45 23/18/24
f 23/2/24 30/15/45 31/17/46 24/18/27
f 24/2/27 31/15/47 32/17/48 25/18/49
f 25/2/50 32/15/51 33/17/52 26/18/53
f 26/2/32 33/15/52 34/17/54 27/18/33
f 27/2/55 34/15/56 35/17/56 28/18/55
f 28/2/57 35/15/58 29/17/58 22/18/57
f 32/17/59 31/17/48 30/17/60 29/15/60 35/17/60 34/17/60 33/17/52
f 6/11/61 5/9/61 4/7/61 3/5/61 2/3/61 1/2/61 7/13/61
f 36/15/62 51/15/63 56/17/63 42/13/62
f 41/11/64 42/13/64 56/15/65 55/17/65
f 41/11/66 55/15/67 54/17/67 40/9/66
f 39/7/68 40/9/68 54/15/69 53/17/69
f 38/5/70 39/7/70 53/15/71 52/17/71
f 38/5/72 52/15/73 50/17/73 37/3/72
f 37/3/74 50/15/75 51/17/75 36/2/74
f 36/2/74 43/15/76 44/17/76 37/18/74
f 37/2/72 44/15/77 45/17/77 38/18/72
f 38/2/70 45/15/78 46/17/78 39/18/70
f 39/2/68 46/15/79 47/17/79 40/18/68
f 40/2/66 47/15/80 48/17/80 41/18/66
f 41/2/64 48/15/81 49/17/81 42/18/64
f 42/2/62 49/15/82 43/17/82 36/18/62
f 52/2/73 63/15/83 57/17/83 50/18/73
f 52/18/71 53/2/71 62/15/84 63/17/84
f 54/2/85 61/15/86 62/17/87 53/18/69
f 55/2/67 60/15/88 61/17/86 54/18/89
f 56/2/65 59/15/90 60/17/90 55/18/65
f 56/18/63 51/2/63 58/15/91 59/17/91
f 50/2/75 57/15/92 58/17/92 51/18/75
f 60/17/93 59/17/93 58/17/93 57/15/93 63/17/93 62/17/93 61/17/93
f 71/1/94 64/2/95 65/3/95 72/4/94
f 72/4/96 65/3/97 66/5/97 73/6/96
f 73/6/98 66/5/99 67/7/99 74/8/98
f 74/8/100 67/7/101 68/9/101 75/10/100
f 75/10/102 68/9/103 69/11/103 76/12/102
f 76/12/104 69/11/105 70/13/105 77/14/104
f 77/14/106 70/13/107 64/15/107 71/16/106
f 72/2/94 78/15/108 79/17/108 71/18/94
f 73/2/96 80/15/109 78/17/109 72/18/96
f 74/2/98 81/15/110 80/17/110 73/18/98
f 75/2/100 82/15/111 81/17/111 74/18/100
f 76/2/102 83/15/112 82/17/112 75/18/102
f 77/2/104 84/15/113 83/17/113 76/18/104
f 71/2/106 79/15/114 84/17/114 77/18/106
f 78/2/115 85/15/116 86/17/117 79/18/25
f 79/2/118 86/15/117 87/17/119 84/18/120
f 84/2/121 87/15/119 88/17/122 83/18/113
f 83/2/112 88/15/123 89/17/123 82/18/112
f 82/2/111 89/15/124 90/17/125 81/18/126
f 81/2/127 90/15/128 91/17/129 80/18/130
f 80/2/131 91/15/132 85/17/133 78/18/134
f 85/2/135 92/15/136 93/17/137 86/18/117
f 86/2/117 93/15/137 94/17/138 87/18/119
f 87/2/119 94/15/139 95/17/140 88/18/49
f 88/2/141 95/15/142 96/17/143 89/18/144
f 89/2/124 96/15/143 97/17/145 90/18/125
f 90/2/146 97/15/147 98/17/147 91/18/146
f 91/2/148 98/15/149 92/17/149 85/18/148
f 95/17/150 94/17/140 93/17/151 92/15/151 98/17/151 97/17/151 96/17/143
f 69/11/152 68/9/152 67/7/152 66/5/152 65/3/152 64/2/152 70/13/152
