# OBJ written from C:\Users\Lenovo\Documents\Bacon_Racing\Pista_Bambu\props\Rio.obj
# Units	meters

o Rio
v -245 -2.5 -92.5
v -223 -2.5 -92.5
v -223 -2.5 -52.5
v -245 -2.5 -52.5
v -185.842 -2.5 -52.937
v -194.158 -2.5 -92.063
v -155.196 -2.5 -62.083
v -163.513 -2.5 -101.209
v -116.024 -2.5 -68.6401
v -139.252 -2.5 -101.205
v -107.697 -2.5 -77.5566
v -112.572 -2.5 -117.258
v -73.4541 -2.5 -81.7611
v -78.3289 -2.5 -121.463
v -50.9625 -2.5 -91.3132
v -61.988 -2.5 -129.764
v -19.5599 -2.5 -100.936
v -39.5599 -2.5 -135.577
v -1.33962 -2.5 -115.866
v 2.84153 -2.5 -155.647
v 28.6481 -2.5 -113.229
v 23.7733 -2.5 -152.931
v 56.2621 -2.5 -118.291
v 67.6227 -2.5 -156.644
v 83.6843 -2.5 -110.168
v 95.0449 -2.5 -148.521
v 116.284 -2.5 -100.512
v 127.645 -2.5 -138.865
v 144.665 -2.5 -92.1049
v 156.026 -2.5 -130.458
vn 0 1 0
vt 0 1
vt 0 0
vt 1 0
vt 1 1
mtllib Rio.mtl
usemtl Cascada_agua
g Default
f 1/1/1 4/2/1 3/3/1 2/4/1
f 3/2/1 5/3/1 6/4/1 2/1/1
f 8/4/1 6/1/1 5/2/1 7/3/1
f 7/2/1 9/3/1 10/4/1 8/1/1
f 10/1/1 9/2/1 11/3/1 12/4/1
f 11/2/1 13/3/1 14/4/1 12/1/1
f 15/3/1 16/4/1 14/1/1 13/2/1
f 15/2/1 17/3/1 18/4/1 16/1/1
f 18/1/1 17/2/1 19/3/1 20/4/1
f 19/2/1 21/3/1 22/4/1 20/1/1
f 22/1/1 21/2/1 23/3/1 24/4/1
f 23/2/1 25/3/1 26/4/1 24/1/1
f 27/3/1 28/4/1 26/1/1 25/2/1
f 27/2/1 29/3/1 30/4/1 28/1/1
